# This file uses centimeters as units for non-parametric coordinates.

mtllib test.mtl
g default
v 2.217116 -1.918947 -1.152906
v 3.217116 -1.918947 -1.152906
v 2.217116 -0.918947 -1.152906
v 3.217116 -0.918947 -1.152906
v 2.217116 -0.918947 -2.152906
v 3.217116 -0.918947 -2.152906
v 2.217116 -1.918947 -2.152906
v 3.217116 -1.918947 -2.152906
vt 0.375000 0.000000
vt 0.625000 0.000000
vt 0.375000 0.250000
vt 0.625000 0.250000
vt 0.375000 0.500000
vt 0.625000 0.500000
vt 0.375000 0.750000
vt 0.625000 0.750000
vt 0.375000 1.000000
vt 0.625000 1.000000
vt 0.875000 0.000000
vt 0.875000 0.250000
vt 0.125000 0.000000
vt 0.125000 0.250000
vn 0.000000 0.000000 1.000000
vn 0.000000 0.000000 1.000000
vn 0.000000 0.000000 1.000000
vn 0.000000 0.000000 1.000000
vn 0.000000 1.000000 0.000000
vn 0.000000 1.000000 0.000000
vn 0.000000 1.000000 0.000000
vn 0.000000 1.000000 0.000000
vn 0.000000 0.000000 -1.000000
vn 0.000000 0.000000 -1.000000
vn 0.000000 0.000000 -1.000000
vn 0.000000 0.000000 -1.000000
vn 0.000000 -1.000000 0.000000
vn 0.000000 -1.000000 0.000000
vn 0.000000 -1.000000 0.000000
vn 0.000000 -1.000000 0.000000
vn 1.000000 0.000000 0.000000
vn 1.000000 0.000000 0.000000
vn 1.000000 0.000000 0.000000
vn 1.000000 0.000000 0.000000
vn -1.000000 0.000000 0.000000
vn -1.000000 0.000000 0.000000
vn -1.000000 0.000000 0.000000
vn -1.000000 0.000000 0.000000
s off
g pCube1
usemtl initialShadingGroup
f 1/1/1 2/2/2 4/4/3 3/3/4
f 3/3/5 4/4/6 6/6/7 5/5/8
f 5/5/9 6/6/10 8/8/11 7/7/12
f 7/7/13 8/8/14 2/10/15 1/9/16
f 2/2/17 8/11/18 6/12/19 4/4/20
f 7/13/21 1/1/22 3/3/23 5/14/24
g default
v 0.951057 -1.000000 -0.309017
v 0.809018 -1.000000 -0.587786
v 0.587786 -1.000000 -0.809017
v 0.309017 -1.000000 -0.951057
v 0.000000 -1.000000 -1.000000
v -0.309017 -1.000000 -0.951057
v -0.587785 -1.000000 -0.809017
v -0.809017 -1.000000 -0.587785
v -0.951057 -1.000000 -0.309017
v -1.000000 -1.000000 0.000000
v -0.951057 -1.000000 0.309017
v -0.809017 -1.000000 0.587785
v -0.587785 -1.000000 0.809017
v -0.309017 -1.000000 0.951057
v -0.000000 -1.000000 1.000000
v 0.309017 -1.000000 0.951057
v 0.587785 -1.000000 0.809017
v 0.809017 -1.000000 0.587785
v 0.951057 -1.000000 0.309017
v 1.000000 -1.000000 0.000000
v 0.000000 1.000000 0.000000
vt 0.737764 0.172746
vt 0.702254 0.103054
vt 0.646946 0.047746
vt 0.577254 0.012236
vt 0.500000 -0.000000
vt 0.422746 0.012236
vt 0.353054 0.047746
vt 0.297746 0.103054
vt 0.262236 0.172746
vt 0.250000 0.250000
vt 0.262236 0.327254
vt 0.297746 0.396946
vt 0.353054 0.452254
vt 0.422746 0.487764
vt 0.500000 0.500000
vt 0.577254 0.487764
vt 0.646946 0.452254
vt 0.702254 0.396946
vt 0.737764 0.327254
vt 0.750000 0.250000
vt 0.250000 0.500000
vt 0.275000 0.500000
vt 0.300000 0.500000
vt 0.325000 0.500000
vt 0.350000 0.500000
vt 0.375000 0.500000
vt 0.400000 0.500000
vt 0.425000 0.500000
vt 0.450000 0.500000
vt 0.475000 0.500000
vt 0.500000 0.500000
vt 0.525000 0.500000
vt 0.550000 0.500000
vt 0.575000 0.500000
vt 0.600000 0.500000
vt 0.625000 0.500000
vt 0.650000 0.500000
vt 0.675000 0.500000
vt 0.700000 0.500000
vt 0.725000 0.500000
vt 0.750000 0.500000
vt 0.500000 1.000000
vn 0.000000 -1.000000 -0.000000
vn 0.000000 -1.000000 -0.000000
vn 0.000000 -1.000000 -0.000000
vn 0.000000 -1.000000 -0.000000
vn 0.000000 -1.000000 -0.000000
vn 0.000000 -1.000000 -0.000000
vn 0.000000 -1.000000 -0.000000
vn 0.000000 -1.000000 -0.000000
vn 0.000000 -1.000000 -0.000000
vn 0.000000 -1.000000 -0.000000
vn 0.000000 -1.000000 -0.000000
vn 0.000000 -1.000000 -0.000000
vn 0.000000 -1.000000 -0.000000
vn 0.000000 -1.000000 -0.000000
vn 0.000000 -1.000000 -0.000000
vn 0.000000 -1.000000 -0.000000
vn 0.000000 -1.000000 -0.000000
vn 0.000000 -1.000000 -0.000000
vn 0.000000 -1.000000 -0.000000
vn 0.000000 -1.000000 -0.000000
vn 0.850651 0.447214 -0.276392
vn 0.723607 0.447214 -0.525731
vn -0.000000 1.000000 -0.000001
vn 0.525731 0.447214 -0.723607
vn 0.276393 0.447214 -0.850651
vn -0.000000 0.447214 -0.894427
vn -0.276393 0.447214 -0.850651
vn -0.525731 0.447214 -0.723607
vn -0.723607 0.447214 -0.525731
vn -0.850651 0.447214 -0.276393
vn -0.894427 0.447214 0.000000
vn -0.850651 0.447214 0.276393
vn -0.723607 0.447214 0.525731
vn -0.525731 0.447214 0.723607
vn -0.276393 0.447214 0.850651
vn 0.000000 0.447214 0.894427
vn 0.276393 0.447214 0.850651
vn 0.525731 0.447214 0.723607
vn 0.723607 0.447214 0.525731
vn 0.850651 0.447214 0.276393
vn 0.894427 0.447214 0.000001
s off
g pCone1
usemtl initialShadingGroup
f 9/15/25 28/34/26 27/33/27 26/32/28 25/31/29 24/30/30 23/29/31 22/28/32 21/27/33 20/26/34 19/25/35 18/24/36 17/23/37 16/22/38 15/21/39 14/20/40 13/19/41 12/18/42 11/17/43 10/16/44
s 1
f 9/35/45 10/36/46 29/56/47
f 10/36/46 11/37/48 29/56/47
f 11/37/48 12/38/49 29/56/47
f 12/38/49 13/39/50 29/56/47
f 13/39/50 14/40/51 29/56/47
f 14/40/51 15/41/52 29/56/47
f 15/41/52 16/42/53 29/56/47
f 16/42/53 17/43/54 29/56/47
f 17/43/54 18/44/55 29/56/47
f 18/44/55 19/45/56 29/56/47
f 19/45/56 20/46/57 29/56/47
f 20/46/57 21/47/58 29/56/47
f 21/47/58 22/48/59 29/56/47
f 22/48/59 23/49/60 29/56/47
f 23/49/60 24/50/61 29/56/47
f 24/50/61 25/51/62 29/56/47
f 25/51/62 26/52/63 29/56/47
f 26/52/63 27/53/64 29/56/47
f 27/53/64 28/54/65 29/56/47
f 28/54/65 9/55/45 29/56/47
g default
v -1.224447 0.357254 0.848546
v -1.366486 0.357254 0.569778
v -1.587718 0.357254 0.348546
v -1.866487 0.357254 0.206507
v -2.175504 0.357254 0.157563
v -2.484521 0.357254 0.206507
v -2.763289 0.357254 0.348546
v -2.984521 0.357254 0.569778
v -3.126561 0.357254 0.848547
v -3.175504 0.357254 1.157564
v -3.126561 0.357254 1.466581
v -2.984521 0.357254 1.745349
v -2.763289 0.357254 1.966581
v -2.484521 0.357254 2.108620
v -2.175504 0.357254 2.157564
v -1.866487 0.357254 2.108620
v -1.587719 0.357254 1.966581
v -1.366487 0.357254 1.745349
v -1.224447 0.357254 1.466581
v -1.175504 0.357254 1.157564
v -1.224447 2.357254 0.848546
v -1.366486 2.357254 0.569778
v -1.587718 2.357254 0.348546
v -1.866487 2.357254 0.206507
v -2.175504 2.357254 0.157563
v -2.484521 2.357254 0.206507
v -2.763289 2.357254 0.348546
v -2.984521 2.357254 0.569778
v -3.126561 2.357254 0.848547
v -3.175504 2.357254 1.157564
v -3.126561 2.357254 1.466581
v -2.984521 2.357254 1.745349
v -2.763289 2.357254 1.966581
v -2.484521 2.357254 2.108620
v -2.175504 2.357254 2.157564
v -1.866487 2.357254 2.108620
v -1.587719 2.357254 1.966581
v -1.366487 2.357254 1.745349
v -1.224447 2.357254 1.466581
v -1.175504 2.357254 1.157564
v -2.175504 0.357254 1.157564
v -2.175504 2.357254 1.157564
vt 0.648603 0.107966
vt 0.626409 0.064408
vt 0.591842 0.029841
vt 0.548284 0.007647
vt 0.500000 -0.000000
vt 0.451716 0.007647
vt 0.408159 0.029841
vt 0.373591 0.064409
vt 0.351397 0.107966
vt 0.343750 0.156250
vt 0.351397 0.204534
vt 0.373591 0.248091
vt 0.408159 0.282659
vt 0.451716 0.304853
vt 0.500000 0.312500
vt 0.548284 0.304853
vt 0.591841 0.282659
vt 0.626409 0.248091
vt 0.648603 0.204534
vt 0.656250 0.156250
vt 0.375000 0.312500
vt 0.387500 0.312500
vt 0.400000 0.312500
vt 0.412500 0.312500
vt 0.425000 0.312500
vt 0.437500 0.312500
vt 0.450000 0.312500
vt 0.462500 0.312500
vt 0.475000 0.312500
vt 0.487500 0.312500
vt 0.500000 0.312500
vt 0.512500 0.312500
vt 0.525000 0.312500
vt 0.537500 0.312500
vt 0.550000 0.312500
vt 0.562500 0.312500
vt 0.575000 0.312500
vt 0.587500 0.312500
vt 0.600000 0.312500
vt 0.612500 0.312500
vt 0.625000 0.312500
vt 0.375000 0.688440
vt 0.387500 0.688440
vt 0.400000 0.688440
vt 0.412500 0.688440
vt 0.425000 0.688440
vt 0.437500 0.688440
vt 0.450000 0.688440
vt 0.462500 0.688440
vt 0.475000 0.688440
vt 0.487500 0.688440
vt 0.500000 0.688440
vt 0.512500 0.688440
vt 0.525000 0.688440
vt 0.537500 0.688440
vt 0.550000 0.688440
vt 0.562500 0.688440
vt 0.575000 0.688440
vt 0.587500 0.688440
vt 0.600000 0.688440
vt 0.612500 0.688440
vt 0.625000 0.688440
vt 0.648603 0.795466
vt 0.626409 0.751908
vt 0.591842 0.717341
vt 0.548284 0.695147
vt 0.500000 0.687500
vt 0.451716 0.695147
vt 0.408159 0.717341
vt 0.373591 0.751909
vt 0.351397 0.795466
vt 0.343750 0.843750
vt 0.351397 0.892034
vt 0.373591 0.935591
vt 0.408159 0.970159
vt 0.451716 0.992353
vt 0.500000 1.000000
vt 0.548284 0.992353
vt 0.591841 0.970159
vt 0.626409 0.935591
vt 0.648603 0.892034
vt 0.656250 0.843750
vt 0.500000 0.150000
vt 0.500000 0.837500
vn 0.951057 0.000000 -0.309016
vn 0.809017 0.000000 -0.587785
vn 0.809017 0.000000 -0.587785
vn 0.951057 0.000000 -0.309016
vn 0.587785 0.000000 -0.809017
vn 0.587785 0.000000 -0.809017
vn 0.309017 0.000000 -0.951057
vn 0.309017 0.000000 -0.951057
vn -0.000000 0.000000 -1.000000
vn -0.000000 0.000000 -1.000000
vn -0.309017 0.000000 -0.951056
vn -0.309017 0.000000 -0.951056
vn -0.587785 0.000000 -0.809017
vn -0.587785 0.000000 -0.809017
vn -0.809017 0.000000 -0.587785
vn -0.809017 0.000000 -0.587785
vn -0.951057 0.000000 -0.309017
vn -0.951057 0.000000 -0.309017
vn -1.000000 0.000000 0.000000
vn -1.000000 0.000000 0.000000
vn -0.951057 0.000000 0.309017
vn -0.951057 0.000000 0.309017
vn -0.809017 0.000000 0.587785
vn -0.809017 0.000000 0.587785
vn -0.587785 0.000000 0.809017
vn -0.587785 0.000000 0.809017
vn -0.309017 0.000000 0.951057
vn -0.309017 0.000000 0.951057
vn 0.000000 0.000000 1.000000
vn 0.000000 0.000000 1.000000
vn 0.309017 0.000000 0.951057
vn 0.309017 0.000000 0.951057
vn 0.587785 0.000000 0.809017
vn 0.587785 0.000000 0.809017
vn 0.809017 0.000000 0.587785
vn 0.809017 0.000000 0.587785
vn 0.951057 0.000000 0.309017
vn 0.951057 0.000000 0.309017
vn 1.000000 0.000000 0.000001
vn 1.000000 0.000000 0.000001
vn 0.000000 -1.000000 0.000000
vn 0.000000 -1.000000 0.000000
vn 0.000000 -1.000000 0.000000
vn 0.000000 -1.000000 0.000000
vn 0.000000 -1.000000 0.000000
vn 0.000000 -1.000000 0.000000
vn 0.000000 -1.000000 0.000000
vn 0.000000 -1.000000 0.000000
vn 0.000000 -1.000000 0.000000
vn 0.000000 -1.000000 0.000000
vn 0.000000 -1.000000 0.000000
vn 0.000000 -1.000000 0.000000
vn 0.000000 -1.000000 0.000000
vn 0.000000 -1.000000 0.000000
vn 0.000000 -1.000000 0.000000
vn 0.000000 -1.000000 0.000000
vn 0.000000 -1.000000 0.000000
vn 0.000000 -1.000000 0.000000
vn 0.000000 -1.000000 0.000000
vn 0.000000 -1.000000 0.000000
vn 0.000000 -1.000000 0.000000
vn 0.000000 1.000000 0.000000
vn 0.000000 1.000000 0.000000
vn 0.000000 1.000000 0.000000
vn 0.000000 1.000000 0.000000
vn 0.000000 1.000000 0.000000
vn 0.000000 1.000000 0.000000
vn 0.000000 1.000000 0.000000
vn 0.000000 1.000000 0.000000
vn 0.000000 1.000000 0.000000
vn 0.000000 1.000000 0.000000
vn 0.000000 1.000000 0.000000
vn 0.000000 1.000000 0.000000
vn 0.000000 1.000000 0.000000
vn 0.000000 1.000000 0.000000
vn 0.000000 1.000000 0.000000
vn 0.000000 1.000000 0.000000
vn 0.000000 1.000000 0.000000
vn 0.000000 1.000000 0.000000
vn 0.000000 1.000000 0.000000
vn 0.000000 1.000000 0.000000
vn 0.000000 1.000000 0.000000
s 1
g pCylinder1
usemtl initialShadingGroup
f 30/77/66 31/78/67 51/99/68 50/98/69
f 31/78/67 32/79/70 52/100/71 51/99/68
f 32/79/70 33/80/72 53/101/73 52/100/71
f 33/80/72 34/81/74 54/102/75 53/101/73
f 34/81/74 35/82/76 55/103/77 54/102/75
f 35/82/76 36/83/78 56/104/79 55/103/77
f 36/83/78 37/84/80 57/105/81 56/104/79
f 37/84/80 38/85/82 58/106/83 57/105/81
f 38/85/82 39/86/84 59/107/85 58/106/83
f 39/86/84 40/87/86 60/108/87 59/107/85
f 40/87/86 41/88/88 61/109/89 60/108/87
f 41/88/88 42/89/90 62/110/91 61/109/89
f 42/89/90 43/90/92 63/111/93 62/110/91
f 43/90/92 44/91/94 64/112/95 63/111/93
f 44/91/94 45/92/96 65/113/97 64/112/95
f 45/92/96 46/93/98 66/114/99 65/113/97
f 46/93/98 47/94/100 67/115/101 66/114/99
f 47/94/100 48/95/102 68/116/103 67/115/101
f 48/95/102 49/96/104 69/117/105 68/116/103
f 49/96/104 30/97/66 50/118/69 69/117/105
s 2
f 31/58/106 30/57/107 70/139/108
f 32/59/109 31/58/106 70/139/108
f 33/60/110 32/59/109 70/139/108
f 34/61/111 33/60/110 70/139/108
f 35/62/112 34/61/111 70/139/108
f 36/63/113 35/62/112 70/139/108
f 37/64/114 36/63/113 70/139/108
f 38/65/115 37/64/114 70/139/108
f 39/66/116 38/65/115 70/139/108
f 40/67/117 39/66/116 70/139/108
f 41/68/118 40/67/117 70/139/108
f 42/69/119 41/68/118 70/139/108
f 43/70/120 42/69/119 70/139/108
f 44/71/121 43/70/120 70/139/108
f 45/72/122 44/71/121 70/139/108
f 46/73/123 45/72/122 70/139/108
f 47/74/124 46/73/123 70/139/108
f 48/75/125 47/74/124 70/139/108
f 49/76/126 48/75/125 70/139/108
f 30/57/107 49/76/126 70/139/108
s 3
f 50/137/127 51/136/128 71/140/129
f 51/136/128 52/135/130 71/140/129
f 52/135/130 53/134/131 71/140/129
f 53/134/131 54/133/132 71/140/129
f 54/133/132 55/132/133 71/140/129
f 55/132/133 56/131/134 71/140/129
f 56/131/134 57/130/135 71/140/129
f 57/130/135 58/129/136 71/140/129
f 58/129/136 59/128/137 71/140/129
f 59/128/137 60/127/138 71/140/129
f 60/127/138 61/126/139 71/140/129
f 61/126/139 62/125/140 71/140/129
f 62/125/140 63/124/141 71/140/129
f 63/124/141 64/123/142 71/140/129
f 64/123/142 65/122/143 71/140/129
f 65/122/143 66/121/144 71/140/129
f 66/121/144 67/120/145 71/140/129
f 67/120/145 68/119/146 71/140/129
f 68/119/146 69/138/147 71/140/129
f 69/138/147 50/137/127 71/140/129
